name C:\Users\antoi\Documents\MyRepositories\upper-imu-dc\Results\main_tracking\Case_79\kinematics.mot
datacolumns 10
datarows 52
range 7.88000000 8.39000000
endheader 
time	clav_prot	clav_elev	scapula_abduction	scapula_elevation	scapula_upward_rot	scapula_winging	plane_elv	shoulder_elv	axial_rot	
          7.88000000	        -49.36793385	         -7.45423416	         -9.92522854	        -14.26950548	         75.86851677	         -7.63074504	         20.24898564	         57.24914678	         10.27946212	
          7.89000000	        -49.37652254	         -7.60784472	        -10.17174388	        -14.40516502	         75.51523005	         -7.54503162	         20.09802946	         56.72513559	         10.58965407	
          7.90000000	        -49.38616369	         -7.76191621	        -10.42335697	        -14.54091547	         75.15762679	         -7.45842754	         19.94367551	         56.19622102	         10.89437784	
          7.91000000	        -49.39705468	         -7.91591827	        -10.68001868	        -14.67632465	         74.79631194	         -7.37139611	         19.78495050	         55.66312037	         11.19274151	
          7.92000000	        -49.40940710	         -8.06929497	        -10.94166273	        -14.81094289	         74.43194194	         -7.28444088	         19.62088865	         55.12664461	         11.48389334	
          7.93000000	        -49.42344127	         -8.22147061	        -11.20820448	        -14.94430822	         74.06521292	         -7.19809960	         19.45055273	         54.58769466	         11.76704546	
          7.94000000	        -49.43938003	         -8.37186022	        -11.47953867	        -15.07595463	         73.69684798	         -7.11293359	         19.27305349	         54.04725394	         12.04149643	
          7.95000000	        -49.45744288	         -8.51988148	        -11.75553978	        -15.20542160	         73.32758168	         -7.02951582	         19.08756951	         53.50637580	         12.30665081	
          7.96000000	        -49.47783923	         -8.66497014	        -12.03605687	        -15.33226553	         72.95814960	         -6.94841482	         18.89335597	         52.96616266	         12.56201902	
          7.97000000	        -49.50076675	         -8.80658200	        -12.32091785	        -15.45606166	         72.58927928	         -6.87019180	         18.68976249	         52.42772961	         12.80723219	
          7.98000000	        -49.52641178	         -8.94418940	        -12.60995329	        -15.57640315	         72.22165965	         -6.79540430	         18.47627588	         51.89217384	         13.04210812	
          7.99000000	        -49.55493867	         -9.07730383	        -12.90299926	        -15.69291794	         71.85591100	         -6.72458153	         18.25253135	         51.36055920	         13.26667592	
          8.00000000	        -49.58649590	         -9.20546011	        -13.19989646	        -15.80525618	         71.49260311	         -6.65823806	         18.01831555	         50.83384285	         13.48116523	
          8.01000000	        -49.62121872	         -9.32818359	        -13.50047109	        -15.91306453	         71.13229387	         -6.59689888	         17.77354855	         50.31279772	         13.68593891	
          8.02000000	        -49.65919694	         -9.44504126	        -13.80449734	        -16.01602210	         70.77550356	         -6.54103791	         17.51823307	         49.79805029	         13.88142636	
          8.03000000	        -49.70042656	         -9.55574075	        -14.11171941	        -16.11391538	         70.42256604	         -6.49097076	         17.25247765	         49.29024370	         14.06822872	
          8.04000000	        -49.74477364	         -9.66018803	        -14.42190394	        -16.20668268	         70.07347446	         -6.44678569	         16.97657926	         48.79019406	         14.24706167	
          8.05000000	        -49.79203749	         -9.75836583	        -14.73482971	        -16.29432046	         69.72805339	         -6.40847029	         16.69100085	         48.29867352	         14.41866306	
          8.06000000	        -49.84201957	         -9.85020817	        -15.05015192	        -16.37678198	         69.38631159	         -6.37604307	         16.39613589	         47.81607938	         14.58388010	
          8.07000000	        -49.89451788	         -9.93555981	        -15.36748349	        -16.45395327	         69.04832698	         -6.34959006	         16.09244637	         47.34252498	         14.74348046	
          8.08000000	        -49.94927778	        -10.01428977	        -15.68642070	        -16.52573842	         68.71408867	         -6.32914555	         15.78048512	         46.87805938	         14.89828366	
          8.09000000	        -50.00598850	        -10.08636391	        -16.00654948	        -16.59211225	         68.38346886	         -6.31462806	         15.46087606	         46.42273924	         15.04918406	
          8.10000000	        -50.06429538	        -10.15184765	        -16.32742891	        -16.65312073	         68.05627171	         -6.30584159	         15.13427145	         45.97661371	         15.19701761	
          8.11000000	        -50.12382756	        -10.21085360	        -16.64859734	        -16.70884248	         67.73229298	         -6.30253353	         14.80134143	         45.53966140	         15.34253887	
          8.12000000	        -50.18420891	        -10.26354893	        -16.96957628	        -16.75939436	         67.41133651	         -6.30439423	         14.46274928	         45.11178854	         15.48640255	
          8.13000000	        -50.24506875	        -10.31015071	        -17.28989659	        -16.80492911	         67.09320198	         -6.31106766	         14.11916336	         44.69283798	         15.62922083	
          8.14000000	        -50.30605113	        -10.35090387	        -17.60911302	        -16.84561989	         66.77768839	         -6.32217563	         13.77125941	         44.28257929	         15.77156954	
          8.15000000	        -50.36681660	        -10.38607747	        -17.92680105	        -16.88165744	         66.46460248	         -6.33732205	         13.41969702	         43.88070540	         15.91395127	
          8.16000000	        -50.42704133	        -10.41596546	        -18.24255696	        -16.91325070	         66.15375659	         -6.35609213	         13.06510277	         43.48683657	         16.05678003	
          8.17000000	        -50.48641461	        -10.44088605	        -18.55600032	        -16.94062641	         65.84496009	         -6.37805188	         12.70806051	         43.10052720	         16.20038047	
          8.18000000	        -50.54463488	        -10.46117806	        -18.86677751	        -16.96402641	         65.53800692	         -6.40274919	         12.34910707	         42.72127383	         16.34499729	
          8.19000000	        -50.60140425	        -10.47719628	        -19.17456320	        -16.98370400	         65.23266301	         -6.42971495	         11.98872717	         42.34852478	         16.49080446	
          8.20000000	        -50.65642304	        -10.48930651	        -19.47905997	        -16.99991992	         64.92865651	         -6.45846411	         11.62734752	         41.98169068	         16.63791121	
          8.21000000	        -50.70938589	        -10.49788009	        -19.77999869	        -17.01293793	         64.62566994	         -6.48849820	         11.26533253	         41.62015661	         16.78637005	
          8.22000000	        -50.75997978	        -10.50328925	        -20.07713965	        -17.02302095	         64.32333547	         -6.51930825	         10.90298017	         41.26329638	         16.93618241	
          8.23000000	        -50.80788456	        -10.50590295	        -20.37027422	        -17.03042769	         64.02123400	         -6.55037874	         10.54051697	         40.91048717	         17.08730250	
          8.24000000	        -50.85277561	        -10.50608343	        -20.65922815	        -17.03540976	         63.71889661	         -6.58119241	         10.17809564	         40.56112332	         17.23964536	
          8.25000000	        -50.89432749	        -10.50418326	        -20.94386535	        -17.03820930	         63.41580688	         -6.61123516	          9.81579411	         40.21462930	         17.39309263	
          8.26000000	        -50.93221788	        -10.50054295	        -21.22409167	        -17.03905697	         63.11140369	         -6.64000077	          9.45361693	         39.87047120	         17.54749986	
          8.27000000	        -50.96613135	        -10.49548850	        -21.49985842	        -17.03816995	         62.80508407	         -6.66699549	          9.09150015	         39.52816501	         17.70270682	
          8.28000000	        -50.99576307	        -10.48933035	        -21.77116462	        -17.03575089	         62.49620724	         -6.69174147	          8.72931939	         39.18728157	         17.85854782	
          8.29000000	        -51.02082299	        -10.48236302	        -22.03805895	        -17.03198746	         62.18409992	         -6.71377983	          8.36690307	         38.84744776	         18.01486558	
          8.30000000	        -51.04104093	        -10.47486600	        -22.30064068	        -17.02705286	         61.86806459	         -6.73267338	          8.00404866	         38.50834438	         18.17152460	
          8.31000000	        -51.05617274	        -10.46710587	        -22.55905965	        -17.02110733	         61.54739100	         -6.74800884	          7.64053997	         38.16970176	         18.32842211	
          8.32000000	        -51.06600733	        -10.45933818	        -22.81351557	        -17.01429975	         61.22137022	         -6.75940002	          7.27616359	         37.83129432	         18.48549628	
          8.33000000	        -51.07037360	        -10.45180930	        -23.06425598	        -17.00676912	         60.88931053	         -6.76649106	          6.91072152	         37.49293499	         18.64272810	
          8.34000000	        -51.06914694	        -10.44475716	        -23.31157315	        -16.99864563	         60.55055379	         -6.76896034	          6.54403880	         37.15447041	         18.80013684	
          8.35000000	        -51.06225465	        -10.43841101	        -23.55579968	        -16.99005093	         60.20449176	         -6.76652468	          6.17596486	         36.81577721	         18.95776856	
          8.36000000	        -51.04967957	        -10.43299056	        -23.79730242	        -16.98109812	         59.85058101	         -6.75894296	          5.80636794	         36.47675847	         19.11567809	
          8.37000000	        -51.03146195	        -10.42870439	        -24.03647556	        -16.97189122	         59.48835582	         -6.74601928	          5.43512525	         36.13734133	         19.27390568	
          8.38000000	        -51.00769958	        -10.42574779	        -24.27373188	        -16.96252437	         59.11744003	         -6.72760547	          5.06210888	         35.79747676	         19.43245012	
          8.39000000	        -50.97854584	        -10.42430029	        -24.50949234	        -16.95308079	         58.73755723	         -6.70360268	          4.68716954	         35.45714212	         19.59124215	
